PathFileType	4	(X/Y/Z)	D:\Share\Shared_Data\Ergonomics\Sit To Stand Pertubation\S2\Unperturbed.trc
DataRate	CameraRate	NumFrames	NumMarkers	Units	OrigDataRate	OrigDataStartFrame	OrigNumFrames	
100	100	17	18	m	100	2676	261
Frame#	Time	R_Toe			R_ASIS			R_Pelvis			V_Sacral			L_Pelvis			L_ASIS			Clavical			R_Acromium			L_Acromium			Sternum			Torso			R_Thigh_Med			R_Thigh_Lat			R_Thigh			R_Shank_Med			R_Shank_Lat			R_Shank			R_Heel			
		X1	Y1	Z1	X2	Y2	Z2	X3	Y3	Z3	X4	Y4	Z4	X5	Y5	Z5	X6	Y6	Z6	X7	Y7	Z7	X8	Y8	Z8	X9	Y9	Z9	X10	Y10	Z10	X11	Y11	Z11	X12	Y12	Z12	X13	Y13	Z13	X14	Y14	Z14	X15	Y15	Z15	X16	Y16	Z16	X17	Y17	Z17	X18	Y18	Z18	

2676	26.75	0.43944376	0.072195229	0.14455992	0.030429678	0.63130219	0.13424687	-0.04305444	0.65219531	0.16998941	-0.18734985	0.620505	0.015368151	-0.078787422	0.65961731	-0.16291498	0.016249836	0.64806824	-0.13673085	0.26188284	0.90996167	-0.0032321386	0.20707657	0.98538586	0.20026726	0.2009462	0.98733447	-0.18975783	0.20849962	0.75718469	0.00085563105	0.2499297	0.8714071	-0.11455368	0.39596909	0.49737689	0.12056778	0.36636932	0.50699496	0.22436243	0.20910313	0.62358923	0.16748792	0.30282599	0.1106879	0.11242805	0.28385992	0.099948296	0.20489738	0.35052206	0.3553226	0.23737614	0.20214969	0.058931274	0.15564749
2677	26.76	0.43943848	0.072509399	0.14481366	0.034162052	0.63200452	0.1342626	-0.039061794	0.65391925	0.16999391	-0.18369557	0.62394897	0.015421239	-0.074383415	0.66174713	-0.16277927	0.020471659	0.6488363	-0.1366068	0.27054623	0.90645245	-0.0029472063	0.21686147	0.9833075	0.20027359	0.21144463	0.98474158	-0.18970967	0.21547588	0.75447241	0.0012861768	0.25841718	0.86830762	-0.11413964	0.39769669	0.49689487	0.1207339	0.36802228	0.50652625	0.22448888	0.21126361	0.62417493	0.16800955	0.3029306	0.11070137	0.11259846	0.28379849	0.099787376	0.20500728	0.35167239	0.35488983	0.23747765	0.2021257	0.058793411	0.15565443
2678	26.77	0.43946136	0.072747101	0.14500101	0.037983517	0.63284772	0.13424777	-0.034964542	0.65578589	0.16998575	-0.17994096	0.62751282	0.01550916	-0.069946159	0.66394977	-0.16266869	0.024709833	0.64968549	-0.13651221	0.27928571	0.9030437	-0.0026494405	0.2265968	0.98131982	0.20028241	0.22184894	0.98228326	-0.18962965	0.22255498	0.75184967	0.0017113117	0.26695511	0.86534918	-0.11370203	0.39949634	0.49636264	0.12082262	0.36977777	0.50602902	0.22455449	0.21357251	0.62476575	0.16849854	0.30305652	0.11067972	0.11273528	0.2838031	0.099627983	0.2051017	0.35291699	0.35443045	0.23752744	0.20212611	0.058673939	0.15565904
2679	26.78	0.43950842	0.072910103	0.14512698	0.041863842	0.63382642	0.1342114	-0.030799536	0.65778357	0.1699691	-0.17610796	0.63116327	0.015629272	-0.065495514	0.66619482	-0.16258398	0.0289464	0.65059686	-0.13643973	0.28807172	0.8997489	-0.0023474519	0.23623888	0.97941315	0.20030048	0.23209283	0.97998499	-0.18951297	0.22966554	0.74932684	0.0021133528	0.27547314	0.86253986	-0.11324778	0.40136734	0.49577649	0.12078794	0.37165079	0.50551474	0.2245153	0.21604395	0.62534869	0.1688922	0.30319733	0.11062286	0.11283324	0.28386484	0.099475777	0.20517957	0.35426041	0.35395453	0.23749522	0.20214497	0.058571007	0.15565929
2680	26.79	0.43957486	0.073006393	0.14519797	0.045772156	0.63493268	0.13416092	-0.026604099	0.6598974	0.16994218	-0.17222064	0.63486096	0.015771614	-0.061045799	0.66844873	-0.16252534	0.03316877	0.65154919	-0.13638382	0.29686887	0.89658533	-0.0020510063	0.24573712	0.97757733	0.20033707	0.2421082	0.97786877	-0.18935478	0.23672748	0.74692078	0.0024758766	0.28389404	0.85988861	-0.11278681	0.40331097	0.49513391	0.12058658	0.37365634	0.50499475	0.22432999	0.21869286	0.62591522	0.16913144	0.30334598	0.11053305	0.11288994	0.28397089	0.099336502	0.20523872	0.35570361	0.35347375	0.23735199	0.20217567	0.058481644	0.15565372
2681	26.8	0.43965527	0.073048782	0.14521973	0.049681141	0.6361582	0.13410014	-0.022410902	0.66210944	0.16989856	-0.16830495	0.63855957	0.015921431	-0.056609825	0.67068079	-0.16249124	0.037366405	0.6525271	-0.13634206	0.30563452	0.89357739	-0.0017701533	0.25503578	0.97580676	0.20040034	0.25182771	0.97595416	-0.18915402	0.24365634	0.74465576	0.002785984	0.29214182	0.85740704	-0.11232881	0.40533017	0.49443292	0.12018417	0.37580832	0.50447775	0.22396558	0.2215316	0.62646136	0.16916649	0.30349567	0.1104144	0.11290556	0.28410785	0.099214844	0.2052765	0.3572438	0.35299942	0.23707347	0.20221204	0.058401928	0.15564091
2682	26.81	0.4397442	0.073051338	0.14519696	0.053570614	0.63749683	0.13402739	-0.01824398	0.66439838	0.16983015	-0.1643885	0.64220636	0.016065144	-0.052204609	0.67286951	-0.16247913	0.041525867	0.65352844	-0.13631622	0.31431683	0.89075873	-0.001513782	0.26407693	0.9741037	0.20049451	0.26118848	0.97425897	-0.18891548	0.25037062	0.74256427	0.0030354798	0.3001492	0.85511182	-0.11188083	0.40742834	0.49367221	0.11956068	0.3781178	0.50396805	0.22340085	0.22456844	0.62698639	0.1689646	0.30364072	0.11027249	0.11288283	0.28426413	0.099113365	0.2052914	0.35887466	0.3525408	0.23664476	0.20224875	0.058327682	0.15561946
2683	26.82	0.43983807	0.073025108	0.14513344	0.057428886	0.63894562	0.13393575	-0.014116883	0.66674127	0.16973216	-0.16049948	0.64574829	0.016194363	-0.047855228	0.67500836	-0.16248674	0.045627918	0.65456873	-0.13631187	0.32285287	0.88817163	-0.0012882777	0.27280371	0.97248138	0.20061848	0.27013547	0.97280084	-0.18864876	0.25679883	0.74068463	0.0032216814	0.30786081	0.85302637	-0.11144685	0.40960812	0.49285123	0.11871292	0.38059082	0.50346436	0.2226283	0.22780489	0.62749146	0.16851718	0.30377805	0.11011366	0.11282623	0.28443262	0.099032616	0.20528387	0.36058792	0.35210443	0.23606384	0.20228229	0.058255669	0.15558794
2684	26.83	0.43993628	0.072975006	0.14503215	0.06125169	0.64050287	0.13381528	-0.0100331	0.66911627	0.16960684	-0.15666382	0.6491427	0.016306238	-0.043593872	0.67710553	-0.16251184	0.049648788	0.65567542	-0.13633638	0.33116888	0.88586206	-0.0010965451	0.28116418	0.97096387	0.20076666	0.27862463	0.9715965	-0.18836545	0.26288412	0.7390578	0.0033474572	0.31523181	0.85117963	-0.11102878	0.41186932	0.49197061	0.11765425	0.38322653	0.50296021	0.22165404	0.23123267	0.62797974	0.16784149	0.30390817	0.10994394	0.1127402	0.28461221	0.098971825	0.20525563	0.36237521	0.35169339	0.23534219	0.20231108	0.058184776	0.1555453
2685	26.84	0.44004053	0.072899452	0.14489577	0.065039803	0.64216437	0.13365787	-0.0059887023	0.67150549	0.16946404	-0.15290109	0.65236841	0.016404987	-0.039453529	0.67918073	-0.16254994	0.053564651	0.65687769	-0.13639485	0.33918307	0.88387408	-0.00093794316	0.28911676	0.96958313	0.20093124	0.28662634	0.97066083	-0.18807631	0.26858743	0.73772247	0.0034201393	0.32222617	0.84960303	-0.11062833	0.41420706	0.49103357	0.11641165	0.38601495	0.50244598	0.22049675	0.23483415	0.62845508	0.16697682	0.30403473	0.1097682	0.11262788	0.28480643	0.098929543	0.2052083	0.36422977	0.35130719	0.23450133	0.20233569	0.058116837	0.15549165
2686	26.85	0.44015323	0.072792953	0.14472762	0.068796227	0.6439198	0.13346208	-0.0019766383	0.67389728	0.16931976	-0.14922025	0.65543549	0.01650205	-0.035458321	0.68126135	-0.16259323	0.057358513	0.65819745	-0.13648615	0.34681174	0.882242	-0.0008094973	0.29663519	0.96837488	0.20110403	0.29412729	0.97000598	-0.18779099	0.27389163	0.73671149	0.0034495542	0.32881894	0.84832672	-0.11024961	0.41661115	0.49004681	0.1150218	0.3889353	0.50191217	0.21918556	0.23858609	0.62892096	0.1659785	0.3041629	0.10958965	0.11249135	0.28502087	0.098903816	0.2051433	0.36614545	0.35094113	0.23356802	0.20235811	0.058056469	0.15542928
2687	26.86	0.4402753	0.072650749	0.14453365	0.072523163	0.64575531	0.13323537	0.0020088413	0.67628821	0.16919397	-0.1456169	0.65838562	0.016610447	-0.031614893	0.6833808	-0.16263164	0.061027321	0.65964709	-0.13660121	0.35397833	0.88098596	-0.00070759696	0.30371088	0.96737512	0.20127725	0.30113013	0.96964203	-0.187519	0.2788035	0.73604974	0.0034451728	0.33499835	0.84737671	-0.10990012	0.41906543	0.48902109	0.113527	0.39195602	0.50135202	0.21775786	0.24246173	0.62938013	0.16490894	0.30429636	0.10940997	0.11233271	0.28525882	0.098892189	0.20506207	0.36811356	0.35058759	0.23257057	0.20238075	0.058009094	0.15536317
2688	26.87	0.44040442	0.072472771	0.14432297	0.076220161	0.64765826	0.13299307	0.0059692283	0.67868536	0.1691068	-0.14207607	0.66128442	0.016739473	-0.02790901	0.68557745	-0.16265526	0.064584572	0.66123462	-0.13672426	0.36062238	0.88011157	-0.00062896699	0.31035349	0.96661761	0.20144516	0.30765109	0.96957758	-0.18727026	0.28335269	0.73575262	0.0034132113	0.34076587	0.84677539	-0.10959035	0.42154901	0.48797049	0.11197185	0.39503732	0.50076276	0.21625655	0.24642802	0.62983423	0.16382634	0.3044353	0.10922948	0.11215511	0.28551843	0.098891884	0.2049669	0.3701189	0.35023727	0.23153702	0.20240538	0.05797813	0.15529929
2689	26.88	0.44053461	0.072264977	0.14410681	0.079883995	0.64962341	0.13275542	0.0099011517	0.68110553	0.16907423	-0.13857831	0.66420703	0.016894564	-0.024309408	0.68789246	-0.16265509	0.068056068	0.6629682	-0.13683582	0.36670682	0.87961517	-0.00057092202	0.31658881	0.966133	0.20160521	0.31371637	0.96982239	-0.18705231	0.2875867	0.73582642	0.0033554947	0.3461348	0.84654315	-0.10933193	0.42403815	0.48691068	0.11040071	0.39813477	0.50014664	0.21472795	0.25044406	0.63028662	0.16277641	0.30457654	0.10904788	0.11196298	0.28579242	0.09890007	0.20486086	0.37213849	0.34988266	0.23049542	0.20243242	0.057963421	0.1552422
2690	26.89	0.44065744	0.07203756	0.14389684	0.083509613	0.6516546	0.13254254	0.013797913	0.68357227	0.16910449	-0.13510666	0.66722449	0.017079002	-0.020777538	0.69036481	-0.16262312	0.071471466	0.66485907	-0.13691692	0.37222226	0.87949036	-0.00053142494	0.32245526	0.96594812	0.20175821	0.31935764	0.97039038	-0.18686473	0.29156387	0.73626923	0.0032706087	0.35112717	0.84669788	-0.1091352	0.42650684	0.48585675	0.10885615	0.40120337	0.49951019	0.21321982	0.25446582	0.6307442	0.16179056	0.30471494	0.10886522	0.11176189	0.28607004	0.098914185	0.20474799	0.37414337	0.34952023	0.22947452	0.20246101	0.057961853	0.15519394
2691	26.9	0.44076361	0.071801567	0.14370381	0.087091026	0.65376477	0.13236967	0.017651453	0.68611328	0.16919627	-0.13165123	0.67039325	0.017294168	-0.017278946	0.6930257	-0.16255316	0.074855148	0.66691901	-0.13695396	0.37718823	0.87973218	-0.0005088138	0.32799771	0.96608624	0.20190761	0.32460861	0.97129926	-0.1866978	0.29534573	0.73707233	0.0031562901	0.35577042	0.84725439	-0.10900626	0.42892786	0.48482257	0.10737761	0.40420129	0.49886362	0.21177809	0.25845511	0.63122046	0.16088896	0.30484622	0.10868285	0.11155804	0.28634027	0.098931938	0.20463319	0.37610266	0.34915097	0.2285031	0.20248979	0.057969234	0.1551543
2692	26.91	0.44084479	0.071565323	0.14353741	0.090621086	0.65597321	0.13224408	0.021453197	0.6887569	0.16934064	-0.12821123	0.67375134	0.01753841	-0.01379147	0.69589453	-0.16244229	0.078220642	0.66915747	-0.13694118	0.38165347	0.88033966	-0.00050120801	0.33326117	0.9665658	0.20205894	0.32950378	0.97256604	-0.18653732	0.29898935	0.73822229	0.0030121062	0.36009271	0.8482218	-0.10894451	0.43127444	0.48382071	0.1060017	0.40709241	0.49821884	0.21044319	0.26238449	0.63173358	0.16008388	0.30496835	0.10850377	0.11135767	0.28659384	0.09895121	0.20452155	0.37798874	0.34877866	0.22760858	0.20251752	0.057982056	0.15512202
